<svg width="322" height="345" viewBox="0 0 322 345" fill="none" xmlns="http://www.w3.org/2000/svg">
<path d="M125.234 27.3369H299.386V111.837H125.234V27.3369Z" fill="#3FFFF3"/>
<path d="M251.273 13.8045C247.487 13.8045 243.786 14.9271 240.639 17.0303C237.491 19.1335 235.038 22.1229 233.589 25.6204C232.14 29.118 231.761 32.9665 232.5 36.6795C233.238 40.3925 235.061 43.803 237.738 46.4799C240.415 49.1568 243.826 50.9798 247.539 51.7184C251.252 52.4569 255.1 52.0779 258.598 50.6291C262.095 49.1804 265.085 46.7271 267.188 43.5794C269.291 40.4317 270.414 36.731 270.414 32.9453C270.408 27.8705 268.39 23.005 264.802 19.4165C261.213 15.828 256.348 13.8097 251.273 13.8045V13.8045Z" fill="white"/>
<path fill-rule="evenodd" clip-rule="evenodd" d="M251.273 13.8045C247.487 13.8045 243.786 14.9271 240.639 17.0303C237.491 19.1335 235.038 22.1229 233.589 25.6204C232.14 29.118 231.761 32.9665 232.5 36.6795C233.238 40.3925 235.061 43.803 237.738 46.4799C240.415 49.1568 243.826 50.9798 247.539 51.7184C251.252 52.4569 255.1 52.0779 258.598 50.6291C262.095 49.1804 265.085 46.7271 267.188 43.5794C269.291 40.4317 270.414 36.731 270.414 32.9453C270.408 27.8705 268.39 23.005 264.802 19.4165C261.213 15.828 256.348 13.8097 251.273 13.8045ZM269.27 32.9465C269.27 36.5056 268.214 39.9847 266.237 42.9441C264.259 45.9037 261.449 48.2105 258.16 49.5726C254.871 50.9348 251.253 51.2912 247.762 50.5968C244.271 49.9023 241.064 48.1883 238.547 45.6713C236.03 43.1543 234.316 39.9475 233.621 36.4564C232.927 32.9653 233.283 29.3466 234.645 26.058C236.008 22.7695 238.314 19.9587 241.274 17.9811C244.233 16.0037 247.713 14.9481 251.272 14.948C256.044 14.9531 260.619 16.851 263.993 20.2251C267.367 23.5994 269.265 28.1745 269.27 32.9465Z" fill="#04146C"/>
<path d="M246.088 28.4489H241.876V42.0471H246.088V28.4489Z" fill="#04146C"/>
<path d="M243.964 26.6663C244.461 26.6702 244.949 26.5262 245.365 26.2524C245.781 25.9787 246.106 25.5876 246.299 25.1288C246.493 24.6699 246.545 24.164 246.451 23.6752C246.356 23.1865 246.118 22.7368 245.767 22.3834C245.417 22.0299 244.969 21.7886 244.481 21.69C243.993 21.5914 243.487 21.64 243.026 21.8296C242.566 22.0192 242.172 22.3413 241.895 22.755C241.618 23.1687 241.47 23.6554 241.47 24.1532C241.469 24.4819 241.533 24.8077 241.657 25.1119C241.782 25.4161 241.965 25.6927 242.197 25.9261C242.428 26.1595 242.703 26.3449 243.006 26.4719C243.31 26.5989 243.635 26.665 243.964 26.6663V26.6663Z" fill="#04146C"/>
<path d="M252.823 34.9113C252.823 32.9942 253.697 31.8619 255.385 31.8619C257.074 31.8619 257.67 32.9545 257.67 34.9113V42.0432H261.862V33.4611C261.862 29.8256 259.796 28.0575 256.895 28.0575C256.076 28.0467 255.268 28.2488 254.551 28.6441C253.834 29.0394 253.231 29.6142 252.803 30.3123V28.4946H248.76V42.0928H252.803L252.823 34.9113Z" fill="#04146C"/>
<path d="M207.912 48.9079H108.381C92.3726 48.9079 85.5312 55.7492 85.5312 71.7576V294.21C85.5312 310.218 92.3726 323.195 108.381 323.195H207.912C223.921 323.195 230.762 310.218 230.762 294.21V71.7576C230.762 55.7492 223.921 48.9079 207.912 48.9079Z" fill="white"/>
<path fill-rule="evenodd" clip-rule="evenodd" d="M91.6816 55.0583C88.2508 58.4891 86.5617 63.8718 86.5617 71.7576V294.21C86.5617 302.089 88.2486 309.099 91.7942 314.11C95.3051 319.073 100.698 322.165 108.381 322.165H207.912C215.595 322.165 220.988 319.073 224.499 314.11C228.045 309.099 229.732 302.089 229.732 294.21V71.7576C229.732 63.8718 228.043 58.4891 224.612 55.0583C221.181 51.6274 215.798 49.9384 207.912 49.9384H108.381C100.495 49.9384 95.1125 51.6274 91.6816 55.0583ZM90.2243 53.601C94.2162 49.6091 100.258 47.8774 108.381 47.8774H207.912C216.035 47.8774 222.077 49.6091 226.069 53.601C230.061 57.5929 231.793 63.6351 231.793 71.7576V294.21C231.793 302.339 230.059 309.821 226.182 315.301C222.27 320.829 216.238 324.226 207.912 324.226H108.381C100.055 324.226 94.0236 320.829 90.1118 315.301C86.2346 309.821 84.5008 302.339 84.5008 294.21V71.7576C84.5008 63.6351 86.2324 57.5929 90.2243 53.601Z" fill="#04146C"/>
<path d="M215.168 77.4832H100.091C98.8276 77.4832 97.8037 78.5072 97.8037 79.7703V283.819C97.8037 285.083 98.8276 286.107 100.091 286.107H215.168C216.431 286.107 217.455 285.083 217.455 283.819V79.7703C217.455 78.5072 216.431 77.4832 215.168 77.4832Z" fill="white"/>
<path fill-rule="evenodd" clip-rule="evenodd" d="M97.2884 79.7703C97.2884 78.2226 98.5431 76.9679 100.091 76.9679H215.168C216.716 76.9679 217.971 78.2226 217.971 79.7703V283.819C217.971 285.367 216.716 286.622 215.168 286.622H100.091C98.5431 286.622 97.2884 285.367 97.2884 283.819V79.7703ZM100.091 77.9984C99.1122 77.9984 98.3189 78.7917 98.3189 79.7703V283.819C98.3189 284.798 99.1122 285.591 100.091 285.591H215.168C216.147 285.591 216.94 284.798 216.94 283.819V79.7703C216.94 78.7917 216.147 77.9984 215.168 77.9984H100.091Z" fill="#04146C"/>
<path d="M171.48 67.0929H142.683C142.172 67.0929 141.682 66.8898 141.32 66.5284C140.959 66.1669 140.756 65.6767 140.756 65.1655V65.1655C140.751 64.9093 140.797 64.6546 140.891 64.4164C140.986 64.1782 141.127 63.9612 141.307 63.7783C141.486 63.5953 141.7 63.4499 141.937 63.3507C142.173 63.2515 142.427 63.2004 142.683 63.2005H171.48C171.736 63.2004 171.99 63.2515 172.226 63.3507C172.463 63.4499 172.677 63.5953 172.856 63.7783C173.036 63.9612 173.177 64.1782 173.271 64.4164C173.366 64.6546 173.412 64.9093 173.407 65.1655V65.1655C173.407 65.6767 173.204 66.1669 172.843 66.5284C172.481 66.8898 171.991 67.0929 171.48 67.0929Z" fill="#04146C"/>
<path d="M165.68 305.169C165.688 303.613 165.233 302.09 164.374 300.792C163.515 299.494 162.29 298.481 160.854 297.88C159.418 297.28 157.837 297.119 156.309 297.418C154.782 297.717 153.378 298.462 152.275 299.56C151.172 300.658 150.419 302.058 150.113 303.584C149.807 305.11 149.96 306.692 150.554 308.131C151.148 309.569 152.155 310.799 153.449 311.665C154.742 312.53 156.263 312.992 157.82 312.992C159.898 312.992 161.892 312.169 163.365 310.703C164.838 309.237 165.67 307.248 165.68 305.169V305.169Z" fill="#04146C"/>
<path d="M259.744 194.934H256.818C256.382 194.937 255.949 194.852 255.544 194.684C255.14 194.516 254.773 194.268 254.464 193.955C254.155 193.641 253.911 193.268 253.746 192.858C253.58 192.448 253.497 192.008 253.5 191.565C253.502 190.672 253.853 189.817 254.474 189.185C255.096 188.554 255.939 188.198 256.818 188.196H260.896L262.807 176.938H259.147C258.297 176.894 257.496 176.521 256.91 175.895C256.324 175.269 255.997 174.438 255.997 173.574C255.997 172.71 256.324 171.879 256.91 171.253C257.496 170.627 258.297 170.253 259.147 170.209H264.001L265.263 162.519C265.386 161.725 265.789 161.003 266.399 160.49C267.008 159.976 267.781 159.707 268.573 159.731C269.057 159.739 269.534 159.852 269.972 160.062C270.41 160.273 270.799 160.575 271.112 160.949C271.426 161.323 271.658 161.761 271.792 162.234C271.927 162.706 271.961 163.202 271.891 163.689L270.757 170.209H280.746L282.025 162.519C282.153 161.708 282.573 160.974 283.203 160.459C283.833 159.944 284.63 159.684 285.438 159.731C285.916 159.749 286.385 159.869 286.815 160.083C287.245 160.298 287.625 160.601 287.932 160.974C288.238 161.348 288.464 161.782 288.594 162.25C288.724 162.717 288.756 163.208 288.688 163.689L287.596 170.209H290.539C291.389 170.253 292.189 170.627 292.776 171.253C293.362 171.879 293.689 172.71 293.689 173.574C293.689 174.438 293.362 175.269 292.776 175.895C292.189 176.521 291.389 176.894 290.539 176.938H286.461L284.55 188.196H288.176C288.612 188.193 289.045 188.277 289.448 188.446C289.852 188.614 290.219 188.862 290.527 189.176C290.835 189.489 291.079 189.862 291.243 190.272C291.408 190.682 291.49 191.122 291.486 191.565C291.483 192.456 291.134 193.31 290.514 193.941C289.894 194.572 289.054 194.929 288.176 194.934H283.399L282.06 202.875C281.928 203.666 281.521 204.382 280.911 204.893C280.302 205.404 279.531 205.674 278.741 205.655C278.258 205.653 277.78 205.545 277.341 205.339C276.902 205.133 276.512 204.833 276.198 204.459C275.884 204.086 275.653 203.648 275.521 203.176C275.388 202.704 275.358 202.208 275.432 201.723L276.643 194.934H266.56L265.221 202.875C265.082 203.67 264.666 204.389 264.049 204.899C263.432 205.409 262.655 205.677 261.86 205.655C261.375 205.663 260.894 205.562 260.453 205.358C260.011 205.155 259.62 204.854 259.308 204.477C258.996 204.1 258.77 203.657 258.648 203.181C258.526 202.705 258.51 202.206 258.601 201.723L259.744 194.934ZM277.658 188.196L279.569 176.938H269.622L267.712 188.196H277.658Z" fill="#04146C"/>
<path fill-rule="evenodd" clip-rule="evenodd" d="M260.498 194.296L259.227 201.841C259.153 202.233 259.166 202.637 259.265 203.023C259.364 203.408 259.546 203.766 259.798 204.07C260.05 204.374 260.365 204.616 260.72 204.78C261.074 204.944 261.46 205.025 261.848 205.018L261.863 205.017L261.878 205.018C262.518 205.036 263.144 204.82 263.643 204.408C264.142 203.996 264.48 203.414 264.593 202.767C264.593 202.766 264.593 202.766 264.593 202.765L266.021 194.296H277.404L276.06 201.826C276.002 202.22 276.027 202.622 276.134 203.004C276.242 203.389 276.43 203.746 276.686 204.049C276.941 204.352 277.257 204.595 277.612 204.762C277.967 204.929 278.353 205.016 278.744 205.017L278.757 205.017C279.391 205.033 280.011 204.816 280.502 204.405C280.994 203.993 281.325 203.413 281.431 202.771L281.431 202.769L282.86 194.296H288.174C288.88 194.292 289.558 194.005 290.06 193.495C290.562 192.984 290.847 192.289 290.849 191.563L290.849 191.558C290.852 191.199 290.785 190.842 290.652 190.51C290.518 190.177 290.321 189.875 290.072 189.622C289.824 189.369 289.528 189.169 289.203 189.034C288.879 188.899 288.531 188.83 288.181 188.833L288.176 188.833L283.796 188.833L285.923 176.301H290.522C291.2 176.262 291.84 175.962 292.311 175.459C292.785 174.952 293.052 174.277 293.052 173.574C293.052 172.87 292.785 172.196 292.311 171.688C291.84 171.185 291.2 170.886 290.521 170.847H286.843L288.058 163.591C288.113 163.2 288.086 162.801 287.98 162.421C287.874 162.038 287.689 161.683 287.439 161.379C287.189 161.074 286.88 160.827 286.531 160.653C286.182 160.48 285.801 160.382 285.414 160.368L285.401 160.367C284.753 160.33 284.114 160.537 283.606 160.952C283.098 161.367 282.758 161.96 282.655 162.618L282.654 162.624L281.286 170.847H269.999L271.262 163.59C271.317 163.194 271.289 162.791 271.18 162.408C271.07 162.021 270.88 161.664 270.624 161.358C270.368 161.053 270.052 160.807 269.696 160.637C269.341 160.466 268.954 160.375 268.562 160.368L268.553 160.368C267.92 160.348 267.3 160.564 266.809 160.977C266.319 161.39 265.992 161.973 265.893 162.616L265.892 162.623L264.542 170.847H259.164C258.486 170.886 257.846 171.185 257.375 171.688C256.9 172.196 256.634 172.87 256.634 173.574C256.634 174.277 256.9 174.952 257.375 175.459C257.846 175.962 258.486 176.262 259.164 176.301H263.561L261.434 188.833L256.82 188.833C256.82 188.833 256.82 188.833 256.82 188.833C256.112 188.835 255.432 189.121 254.928 189.632C254.424 190.144 254.139 190.839 254.137 191.566L254.137 191.57C254.134 191.93 254.202 192.287 254.336 192.62C254.471 192.952 254.669 193.254 254.918 193.507C255.168 193.761 255.464 193.961 255.789 194.096C256.114 194.231 256.462 194.299 256.813 194.296L256.818 194.296L260.498 194.296ZM256.818 188.196H260.896L262.807 176.938H259.147C258.297 176.894 257.496 176.521 256.91 175.895C256.324 175.269 255.997 174.438 255.997 173.574C255.997 172.71 256.324 171.879 256.91 171.253C257.496 170.627 258.297 170.253 259.147 170.209H264.001L265.263 162.519C265.386 161.725 265.789 161.003 266.399 160.49C267.008 159.976 267.781 159.707 268.573 159.731C269.057 159.739 269.534 159.852 269.972 160.062C270.41 160.273 270.799 160.575 271.112 160.949C271.426 161.323 271.658 161.761 271.792 162.234C271.927 162.706 271.961 163.202 271.891 163.689L270.757 170.209H280.746L282.025 162.519C282.153 161.708 282.573 160.974 283.203 160.459C283.833 159.944 284.63 159.684 285.438 159.731C285.916 159.749 286.385 159.869 286.815 160.083C287.245 160.298 287.625 160.601 287.932 160.974C288.238 161.348 288.464 161.782 288.594 162.25C288.724 162.717 288.756 163.208 288.688 163.689L287.596 170.209H290.539C291.389 170.253 292.189 170.627 292.776 171.253C293.362 171.879 293.689 172.71 293.689 173.574C293.689 174.438 293.362 175.269 292.776 175.895C292.189 176.521 291.389 176.894 290.539 176.938H286.461L284.55 188.196H288.176C288.612 188.193 289.045 188.277 289.448 188.446C289.852 188.614 290.219 188.862 290.527 189.176C290.835 189.489 291.079 189.862 291.243 190.272C291.408 190.682 291.49 191.122 291.486 191.565C291.483 192.456 291.134 193.31 290.514 193.941C289.894 194.572 289.054 194.929 288.176 194.934H283.399L282.06 202.875C281.928 203.666 281.521 204.382 280.911 204.893C280.302 205.404 279.531 205.674 278.741 205.655C278.258 205.653 277.78 205.545 277.341 205.339C276.902 205.133 276.512 204.833 276.198 204.459C275.884 204.086 275.653 203.648 275.521 203.176C275.388 202.704 275.358 202.208 275.432 201.723L276.643 194.934H266.56L265.221 202.875C265.082 203.67 264.666 204.389 264.049 204.899C263.432 205.409 262.655 205.677 261.86 205.655C261.375 205.663 260.894 205.562 260.453 205.358C260.011 205.155 259.62 204.854 259.308 204.477C258.996 204.1 258.77 203.657 258.648 203.181C258.526 202.705 258.51 202.206 258.601 201.723L259.744 194.934H256.818C256.382 194.937 255.949 194.852 255.544 194.684C255.14 194.516 254.773 194.268 254.464 193.955C254.155 193.641 253.911 193.268 253.746 192.858C253.58 192.448 253.497 192.008 253.5 191.565C253.502 190.672 253.853 189.817 254.474 189.185C255.096 188.554 255.939 188.198 256.818 188.196ZM278.196 188.833H266.957L269.084 176.301H280.323L278.196 188.833ZM279.569 176.938H269.622L267.712 188.196H277.658L279.569 176.938Z" fill="#04146C"/>
<path fill-rule="evenodd" clip-rule="evenodd" d="M206.302 89.1882L206.302 89.1882C206.109 88.1487 205.592 87.1972 204.824 86.47C204.057 85.7428 203.079 85.2772 202.031 85.14C200.982 85.0028 199.918 85.201 198.989 85.7062C198.06 86.2114 197.315 86.9977 196.861 87.9524C196.407 88.907 196.266 89.981 196.46 91.0203C196.654 92.0597 197.171 93.011 197.939 93.738C198.706 94.465 199.685 94.9303 200.733 95.0672C201.781 95.204 202.846 95.0055 203.775 94.5L204.048 95.0022C203.013 95.5654 201.827 95.7866 200.659 95.6341C199.491 95.4816 198.401 94.9632 197.546 94.1532C196.69 93.3431 196.114 92.2831 195.898 91.1251C195.682 89.967 195.838 88.7703 196.345 87.7067C196.851 86.643 197.681 85.7669 198.716 85.2039C199.75 84.641 200.937 84.4202 202.105 84.573C203.273 84.7259 204.363 85.2447 205.218 86.055C206.073 86.8653 206.649 87.9255 206.865 89.0836C207.089 90.2416 206.936 91.441 206.429 92.506C205.923 93.5711 205.088 94.4458 204.048 95.0022L203.778 94.498C204.711 93.9992 205.459 93.2151 205.913 92.2603C206.367 91.3055 206.504 90.2304 206.303 89.1923L206.302 89.1882Z" fill="#04146C"/>
<path d="M203.111 89.5622C203.092 89.8974 202.974 90.2194 202.772 90.4875C202.57 90.7557 202.293 90.9578 201.976 91.0685C201.659 91.1791 201.316 91.1932 200.991 91.109C200.666 91.0248 200.374 90.8461 200.15 90.5955C199.927 90.3449 199.783 90.0337 199.737 89.7012C199.69 89.3687 199.744 89.03 199.89 88.7278C200.036 88.4257 200.269 88.1737 200.558 88.0038C200.848 87.8339 201.181 87.7538 201.516 87.7735C201.965 87.7998 202.384 88.0029 202.683 88.3383C202.982 88.6736 203.136 89.1138 203.111 89.5622V89.5622Z" fill="white"/>
<path fill-rule="evenodd" clip-rule="evenodd" d="M202.315 90.1435C202.449 89.9658 202.527 89.7523 202.54 89.5301C202.556 89.2328 202.455 88.941 202.256 88.7187C202.058 88.4964 201.78 88.3617 201.483 88.3442C201.261 88.3312 201.04 88.3843 200.848 88.497C200.656 88.6096 200.502 88.7766 200.405 88.9769C200.308 89.1772 200.272 89.4018 200.303 89.6222C200.334 89.8426 200.429 90.049 200.577 90.2151C200.725 90.3812 200.919 90.4997 201.135 90.5555C201.35 90.6113 201.577 90.602 201.788 90.5286C201.998 90.4553 202.181 90.3213 202.315 90.1435ZM202.772 90.4875C202.974 90.2194 203.092 89.8974 203.111 89.5622C203.136 89.1138 202.982 88.6736 202.683 88.3383C202.384 88.0029 201.965 87.7998 201.516 87.7735C201.181 87.7538 200.848 87.8339 200.558 88.0038C200.269 88.1737 200.036 88.4257 199.89 88.7278C199.744 89.03 199.69 89.3687 199.737 89.7012C199.783 90.0337 199.927 90.3449 200.15 90.5955C200.374 90.8461 200.666 91.0248 200.991 91.109C201.316 91.1932 201.659 91.1791 201.976 91.0685C202.293 90.9578 202.57 90.7557 202.772 90.4875Z" fill="#04146C"/>
<path d="M204.086 94.3021L204.048 95.0018C203.138 95.4957 202.109 95.7267 201.076 95.669C200.042 95.6112 199.045 95.2671 198.196 94.675L198.234 93.9791C198.277 93.2029 198.627 92.4754 199.206 91.9568C199.785 91.4382 200.546 91.1709 201.323 91.2137C202.099 91.2566 202.826 91.606 203.345 92.1852C203.864 92.7643 204.131 93.5258 204.088 94.3021L204.086 94.3021Z" fill="white"/>
<path fill-rule="evenodd" clip-rule="evenodd" d="M204.073 93.8002C204.072 93.7931 204.071 93.786 204.07 93.7788C204.068 93.7628 204.066 93.7468 204.064 93.7308C203.983 93.1599 203.735 92.621 203.345 92.1852C202.826 91.606 202.099 91.2566 201.323 91.2137C200.546 91.1709 199.785 91.4382 199.206 91.9568C198.627 92.4754 198.277 93.2029 198.234 93.9791L198.196 94.675C199.045 95.2671 200.042 95.6112 201.076 95.669C202.109 95.7267 203.138 95.4957 204.048 95.0018L204.086 94.3021L204.088 94.3021C204.097 94.1335 204.092 93.9656 204.073 93.8002ZM203.521 94.1743C203.529 93.5831 203.315 93.0088 202.919 92.5666C202.502 92.1004 201.916 91.8191 201.291 91.7847C200.666 91.7502 200.053 91.9653 199.587 92.3828C199.121 92.8002 198.84 93.3858 198.805 94.0106C198.805 94.0106 198.805 94.0106 198.805 94.0106L198.785 94.3768C199.487 94.8036 200.284 95.0521 201.108 95.0981C201.931 95.144 202.75 94.986 203.495 94.6402L203.521 94.1743Z" fill="#04146C"/>
<path d="M114.707 93.8101H106.439V88.0369H108.032L108.392 86.6436H112.755L113.114 88.0369H114.707V93.8101ZM107.01 93.2391H114.136V88.608H112.675L112.315 87.2146H108.832L108.472 88.608H107.01V93.2391Z" fill="#04146C"/>
<path fill-rule="evenodd" clip-rule="evenodd" d="M106.439 88.0369V93.8101H114.707V88.0369H113.114L112.755 86.6436H108.392L108.032 88.0369H106.439ZM108.472 88.608H107.01V93.2391H114.136V88.608H112.675L112.315 87.2146H108.832L108.472 88.608Z" fill="#04146C"/>
<path d="M110.573 92.5797C110.175 92.5809 109.786 92.4638 109.454 92.2434C109.123 92.0229 108.864 91.7091 108.712 91.3415C108.559 90.974 108.518 90.5694 108.596 90.1789C108.673 89.7885 108.865 89.4298 109.146 89.1484C109.428 88.8669 109.786 88.6754 110.177 88.598C110.567 88.5206 110.972 88.5609 111.339 88.7137C111.707 88.8666 112.021 89.1251 112.241 89.4565C112.462 89.7879 112.579 90.1774 112.578 90.5754C112.578 91.107 112.366 91.6168 111.991 91.9927C111.615 92.3686 111.105 92.5797 110.573 92.5797ZM110.573 89.1535C110.288 89.1524 110.01 89.2358 109.772 89.3932C109.535 89.5507 109.349 89.775 109.24 90.0379C109.13 90.3007 109.101 90.5902 109.155 90.8697C109.21 91.1493 109.347 91.4062 109.548 91.608C109.749 91.8098 110.005 91.9475 110.285 92.0034C110.564 92.0594 110.854 92.0313 111.117 91.9225C111.38 91.8138 111.605 91.6293 111.764 91.3926C111.922 91.1558 112.007 90.8774 112.007 90.5925C112.01 90.4024 111.975 90.2135 111.904 90.037C111.833 89.8605 111.728 89.6997 111.595 89.5642C111.461 89.4287 111.302 89.3211 111.127 89.2476C110.952 89.1742 110.763 89.1364 110.573 89.1364V89.1535Z" fill="#04146C"/>
<path fill-rule="evenodd" clip-rule="evenodd" d="M111.963 90.2197C111.992 90.3352 112.007 90.4542 112.007 90.5738C112.007 90.5743 112.007 90.5748 112.007 90.5754C112.007 90.5811 112.007 90.5868 112.007 90.5925C112.007 90.8774 111.922 91.1558 111.764 91.3926C111.714 91.4666 111.658 91.5355 111.596 91.5986C111.461 91.7373 111.298 91.8478 111.117 91.9225C110.944 91.9941 110.759 92.0308 110.573 92.0315C110.573 92.0315 110.572 92.0315 110.572 92.0315C110.476 92.0318 110.38 92.0225 110.285 92.0034C110.096 91.9656 109.918 91.8906 109.76 91.7837C109.684 91.7323 109.613 91.6735 109.548 91.608C109.41 91.4696 109.303 91.3053 109.231 91.1256C109.198 91.0432 109.173 90.9576 109.155 90.8697C109.137 90.774 109.128 90.6771 109.129 90.5805C109.13 90.3951 109.168 90.2107 109.24 90.0379C109.349 89.775 109.535 89.5507 109.772 89.3932C110.006 89.2379 110.281 89.1546 110.562 89.1535C110.566 89.1535 110.569 89.1535 110.573 89.1535L110.573 89.153L110.573 89.1364C110.573 89.1364 110.573 89.1364 110.573 89.1364C110.573 89.1364 110.574 89.1364 110.574 89.1364C110.648 89.1364 110.721 89.1421 110.794 89.1535C110.908 89.1713 111.02 89.2028 111.127 89.2476C111.133 89.25 111.139 89.2525 111.144 89.255C111.313 89.3282 111.466 89.4331 111.595 89.5642C111.728 89.6997 111.833 89.8605 111.904 90.037C111.928 90.0966 111.948 90.1577 111.963 90.2197ZM110.002 88.6408C110.06 88.624 110.118 88.6097 110.177 88.598C110.256 88.5823 110.336 88.5714 110.416 88.5654C110.73 88.5416 111.046 88.5919 111.339 88.7137C111.707 88.8666 112.021 89.1251 112.241 89.4565C112.369 89.6483 112.462 89.8595 112.517 90.0806C112.558 90.2415 112.578 90.4077 112.578 90.5754C112.578 90.5811 112.578 90.5868 112.578 90.5925C112.577 90.5956 112.577 90.5986 112.577 90.6016C112.572 90.9979 112.45 91.3809 112.229 91.7042C112.16 91.8069 112.08 91.9035 111.991 91.9927C111.799 92.1839 111.573 92.3325 111.327 92.4324C111.09 92.5288 110.834 92.5797 110.573 92.5797C110.44 92.5801 110.307 92.5671 110.177 92.5414C109.92 92.4905 109.674 92.3897 109.454 92.2434C109.346 92.1715 109.246 92.0898 109.155 91.9996C108.966 91.8128 108.815 91.5893 108.712 91.3415C108.663 91.2239 108.625 91.1024 108.6 90.9789C108.572 90.8477 108.558 90.7142 108.558 90.5803C108.557 90.4462 108.57 90.3118 108.596 90.1789C108.673 89.7885 108.865 89.4298 109.146 89.1484C109.385 88.9094 109.68 88.7353 110.002 88.6408Z" fill="#04146C"/>
<path fill-rule="evenodd" clip-rule="evenodd" d="M208.595 102.46H105.866V205.19H208.595V102.46ZM209.166 101.889V205.761H105.295V101.889H209.166Z" fill="#04146C"/>
<path d="M113.161 217.811H112.841C112.755 217.756 110.7 216.41 109.818 214.85C109.515 214.391 109.336 213.866 109.299 213.323C109.262 212.781 109.368 212.238 109.606 211.745C109.748 211.503 109.955 211.302 110.206 211.164C110.457 211.026 110.742 210.955 111.032 210.959C111.459 210.977 111.871 211.113 112.22 211.35C112.569 211.586 112.84 211.914 113.001 212.294C113.163 211.915 113.435 211.589 113.784 211.352C114.132 211.116 114.544 210.979 114.97 210.959C115.26 210.955 115.546 211.026 115.798 211.164C116.05 211.302 116.258 211.503 116.402 211.745C116.639 212.238 116.745 212.78 116.709 213.322C116.673 213.865 116.496 214.389 116.196 214.85C115.302 216.41 113.247 217.756 113.161 217.811Z" fill="#04146C"/>
<path d="M137.193 217.485L136.685 217.388L135.657 213.545L133.276 210.947L133.481 210.467H141.887L142.115 210.924L137.193 217.485ZM134.132 211.038L136.125 213.214L136.188 213.328L137.084 216.674L141.316 211.038H134.132Z" fill="#04146C"/>
<path fill-rule="evenodd" clip-rule="evenodd" d="M137.193 217.485L142.115 210.924L141.887 210.467H133.481L133.276 210.947L135.657 213.545L136.685 217.388L137.193 217.485ZM134.132 211.038L136.125 213.214L136.188 213.328L137.084 216.674L141.316 211.038H134.132Z" fill="#04146C"/>
<path d="M142.027 210.389L135.534 213.27L135.765 213.792L142.258 210.911L142.027 210.389Z" fill="#04146C"/>
<path fill-rule="evenodd" clip-rule="evenodd" d="M142.027 210.389L142.258 210.911L135.765 213.792L135.534 213.27L142.027 210.389Z" fill="#04146C"/>
<path d="M124.871 217.559C124.162 217.559 123.468 217.348 122.878 216.954C122.288 216.56 121.829 215.999 121.557 215.344C121.286 214.688 121.216 213.967 121.354 213.271C121.493 212.575 121.835 211.936 122.337 211.435C122.839 210.933 123.479 210.592 124.175 210.455C124.871 210.317 125.592 210.389 126.247 210.661C126.903 210.933 127.462 211.394 127.856 211.984C128.249 212.575 128.458 213.269 128.457 213.978C128.456 214.324 128.406 214.668 128.309 215L128.846 217.205L128.503 217.553L126.618 217.108C126.084 217.404 125.482 217.559 124.871 217.559ZM124.871 210.963C124.406 210.962 123.947 211.069 123.53 211.275C123.113 211.482 122.749 211.781 122.467 212.151C122.185 212.522 121.993 212.952 121.905 213.409C121.817 213.865 121.836 214.336 121.961 214.785C122.085 215.233 122.312 215.646 122.622 215.992C122.933 216.339 123.32 216.608 123.752 216.78C124.184 216.952 124.65 217.021 125.114 216.983C125.578 216.945 126.026 216.8 126.424 216.559L126.636 216.525L128.183 216.891L127.732 215.035V214.88C127.879 214.429 127.917 213.95 127.843 213.481C127.769 213.013 127.585 212.568 127.307 212.184C127.029 211.8 126.663 211.487 126.241 211.271C125.819 211.055 125.351 210.941 124.877 210.94L124.871 210.963Z" fill="#04146C"/>
<path fill-rule="evenodd" clip-rule="evenodd" d="M126.259 216.652C125.904 216.837 125.515 216.95 125.114 216.983C125.033 216.99 124.952 216.993 124.871 216.993C124.871 216.993 124.871 216.993 124.871 216.993C124.489 216.994 124.109 216.922 123.752 216.78C123.555 216.702 123.367 216.603 123.191 216.485C122.982 216.346 122.791 216.181 122.622 215.992C122.393 215.737 122.209 215.444 122.079 215.128C122.033 215.016 121.993 214.902 121.961 214.785C121.836 214.336 121.817 213.865 121.905 213.409C121.907 213.4 121.909 213.391 121.91 213.382C122.001 212.935 122.191 212.514 122.467 212.151C122.521 212.081 122.578 212.012 122.638 211.947C122.89 211.67 123.193 211.442 123.53 211.275C123.947 211.069 124.406 210.962 124.871 210.963L124.877 210.94C125.275 210.941 125.668 211.021 126.034 211.174C126.104 211.204 126.173 211.236 126.241 211.271C126.663 211.487 127.029 211.8 127.307 212.184C127.334 212.221 127.36 212.259 127.385 212.298C127.547 212.544 127.672 212.812 127.755 213.094C127.793 213.22 127.822 213.35 127.843 213.481C127.917 213.95 127.879 214.429 127.732 214.88V215.035L128.183 216.891L126.636 216.525L126.424 216.559C126.37 216.592 126.315 216.623 126.259 216.652ZM126.522 217.159C126.098 217.377 125.635 217.509 125.161 217.547C125.065 217.555 124.968 217.559 124.871 217.559C124.414 217.559 123.964 217.471 123.544 217.304C123.311 217.211 123.088 217.094 122.878 216.954C122.628 216.787 122.402 216.59 122.203 216.369C121.933 216.068 121.714 215.721 121.557 215.344C121.502 215.21 121.455 215.074 121.417 214.936C121.269 214.405 121.245 213.846 121.348 213.301C121.35 213.291 121.352 213.281 121.354 213.271C121.461 212.737 121.687 212.236 122.014 211.806C122.077 211.722 122.145 211.641 122.216 211.563C122.255 211.519 122.296 211.476 122.337 211.435C122.839 210.933 123.479 210.592 124.175 210.455C124.256 210.439 124.338 210.425 124.419 210.415C124.572 210.396 124.725 210.386 124.878 210.386C125.346 210.387 125.811 210.48 126.247 210.661C126.331 210.696 126.414 210.734 126.495 210.775C126.996 211.03 127.431 211.399 127.764 211.853C127.795 211.896 127.826 211.94 127.856 211.984C128.051 212.277 128.201 212.596 128.302 212.929C128.405 213.267 128.458 213.621 128.457 213.978C128.456 214.323 128.406 214.665 128.31 214.996C128.31 214.997 128.309 214.999 128.309 215L128.846 217.205L128.503 217.553L126.618 217.108C126.619 217.107 126.618 217.108 126.618 217.108C126.587 217.125 126.554 217.142 126.522 217.159Z" fill="#04146C"/>
<path d="M202.822 217.566L202.371 217.332V211.245L202.657 210.959H207.602L207.887 211.245V217.332L207.436 217.566L205.152 215.47L202.822 217.566ZM202.942 211.53V216.772L204.964 214.888H205.295L207.316 216.772V211.53H202.942Z" fill="#04146C"/>
<path fill-rule="evenodd" clip-rule="evenodd" d="M202.371 217.332L202.822 217.566L205.152 215.47L207.436 217.566L207.887 217.332V211.245L207.602 210.959H202.657L202.371 211.245V217.332ZM207.316 211.53H202.942V216.772L204.964 214.888H205.295L207.316 216.772V211.53Z" fill="#04146C"/>
<path fill-rule="evenodd" clip-rule="evenodd" d="M210.197 225.584H107.275V285.904H210.197V225.584ZM210.768 225.013V286.475H106.704V225.013H210.768Z" fill="#04146C"/>
<path d="M252.449 102.018H211.25V143.218H252.449V102.018Z" fill="#04146C"/>
<path d="M228.021 126.987H222.457V120.628H227.878C227.878 120.143 227.926 119.769 227.934 119.388C227.934 117.726 227.934 116.049 228.061 114.396C228.403 110.755 230.636 108.188 234.237 107.687C236.487 107.377 238.808 107.631 241.153 107.631V113.418C240.358 113.418 239.484 113.418 238.657 113.418C237.912 113.393 237.167 113.441 236.431 113.561C235.948 113.637 235.507 113.88 235.185 114.247C234.863 114.615 234.679 115.084 234.666 115.572C234.603 117.162 234.666 118.815 234.666 120.572H240.97C240.7 122.647 240.477 124.547 240.175 126.486C240.175 126.677 239.666 126.907 239.38 126.915C237.854 126.963 236.336 126.915 234.69 126.915V143.187H227.981L228.021 126.987Z" fill="white"/>
<path d="M230.332 339.066C223.905 339.066 217.741 336.513 213.196 331.968C208.651 327.423 206.098 321.259 206.098 314.832V314.832C206.098 308.404 208.651 302.24 213.196 297.696C217.741 293.151 223.905 290.597 230.332 290.597V290.597C236.759 290.597 242.923 293.151 247.468 297.696C252.013 302.24 254.566 308.404 254.566 314.832V314.832C254.566 321.259 252.013 327.423 247.468 331.968C242.923 336.513 236.759 339.066 230.332 339.066V339.066Z" fill="#04146C"/>
<path fill-rule="evenodd" clip-rule="evenodd" d="M230.332 291.169C224.056 291.169 218.038 293.662 213.6 298.1C209.163 302.537 206.67 308.556 206.67 314.832C206.67 321.107 209.163 327.126 213.6 331.564C218.038 336.001 224.056 338.494 230.332 338.494C236.608 338.494 242.626 336.001 247.064 331.564C251.502 327.126 253.995 321.107 253.995 314.832C253.995 308.556 251.502 302.537 247.064 298.1C242.626 293.662 236.608 291.169 230.332 291.169ZM230.332 339.638C223.753 339.638 217.444 337.024 212.792 332.372C208.14 327.72 205.526 321.411 205.526 314.832C205.526 308.253 208.14 301.943 212.792 297.291C217.444 292.639 223.753 290.026 230.332 290.026C236.911 290.026 243.221 292.639 247.873 297.291C252.525 301.943 255.138 308.253 255.138 314.832C255.138 321.411 252.525 327.72 247.873 332.372C243.221 337.024 236.911 339.638 230.332 339.638Z" fill="#04146C"/>
<path d="M217.429 322.958C219.85 324.513 222.667 325.338 225.544 325.336C235.369 325.336 240.929 317.031 240.608 309.584C241.635 308.831 242.521 307.904 243.228 306.846C242.263 307.274 241.238 307.554 240.189 307.678C241.294 307.016 242.12 305.975 242.514 304.75C241.477 305.374 240.341 305.817 239.154 306.06C238.357 305.209 237.301 304.645 236.15 304.456C235 304.267 233.819 304.462 232.79 305.012C231.762 305.562 230.944 306.436 230.463 307.498C229.982 308.56 229.864 309.751 230.129 310.887C228.024 310.783 225.964 310.237 224.084 309.285C222.204 308.332 220.546 306.995 219.217 305.359C218.54 306.524 218.332 307.904 218.637 309.217C218.941 310.53 219.734 311.677 220.854 312.426C220.015 312.4 219.193 312.176 218.457 311.771C218.447 313.001 218.865 314.196 219.64 315.152C220.414 316.108 221.496 316.765 222.701 317.011C221.924 317.224 221.108 317.253 220.317 317.096C220.654 318.149 221.312 319.071 222.198 319.731C223.085 320.391 224.157 320.757 225.262 320.777C223.041 322.509 220.225 323.293 217.429 322.958V322.958Z" fill="white"/>
<path d="M129.875 162.817C127.679 162.82 125.574 163.694 124.022 165.249C122.47 166.803 121.598 168.909 121.598 171.105C121.598 175.694 129.887 185.038 129.887 185.038C129.887 185.038 138.169 175.683 138.169 171.105C138.17 170.016 137.956 168.938 137.539 167.931C137.123 166.925 136.512 166.011 135.741 165.241C134.971 164.471 134.056 163.86 133.05 163.445C132.043 163.029 130.964 162.815 129.875 162.817V162.817ZM129.875 174.862C129.129 174.863 128.4 174.643 127.779 174.23C127.159 173.816 126.675 173.227 126.389 172.539C126.103 171.85 126.028 171.092 126.173 170.36C126.318 169.628 126.677 168.956 127.205 168.429C127.732 167.902 128.404 167.543 129.136 167.397C129.867 167.252 130.625 167.327 131.314 167.613C132.003 167.899 132.592 168.383 133.005 169.004C133.419 169.624 133.639 170.354 133.638 171.1C133.638 172.098 133.242 173.056 132.536 173.762C131.831 174.469 130.874 174.867 129.875 174.868V174.862Z" fill="#04146C"/>
<path fill-rule="evenodd" clip-rule="evenodd" d="M129.874 162.245C131.039 162.243 132.192 162.471 133.268 162.916C134.344 163.361 135.322 164.013 136.146 164.836C136.969 165.659 137.622 166.637 138.068 167.712C138.513 168.788 138.742 169.941 138.741 171.106C138.741 171.106 138.741 171.106 138.741 171.106C138.741 172.392 138.169 173.937 137.384 175.473C136.59 177.029 135.537 178.653 134.494 180.12C133.449 181.589 132.405 182.912 131.623 183.867C131.232 184.345 130.906 184.731 130.677 184.999C130.563 185.132 130.472 185.236 130.411 185.307L130.34 185.388L130.321 185.409L130.315 185.416C130.315 185.416 130.315 185.417 129.887 185.038L130.314 184.658L130.309 184.653L130.292 184.633L130.224 184.556C130.165 184.488 130.077 184.386 129.965 184.255C129.94 184.226 129.914 184.196 129.886 184.164C130.104 183.908 130.396 183.561 130.738 183.142C131.509 182.2 132.536 180.899 133.562 179.457C134.589 178.013 135.607 176.439 136.366 174.953C137.134 173.448 137.598 172.107 137.598 171.105C137.598 170.091 137.399 169.087 137.011 168.15C136.623 167.213 136.054 166.362 135.337 165.645C134.62 164.928 133.768 164.36 132.831 163.973C131.894 163.586 130.89 163.387 129.876 163.389C127.831 163.391 125.871 164.206 124.426 165.653C122.981 167.099 122.17 169.061 122.17 171.105C122.17 172.11 122.634 173.453 123.402 174.958C124.162 176.445 125.18 178.017 126.208 179.461C127.234 180.902 128.262 182.203 129.034 183.144C129.376 183.562 129.668 183.908 129.886 184.164C129.859 184.196 129.833 184.226 129.808 184.255C129.696 184.386 129.608 184.488 129.548 184.556L129.481 184.634L129.464 184.653L129.459 184.659L129.887 185.038C129.459 185.417 129.459 185.417 129.459 185.417L129.452 185.41L129.434 185.389L129.363 185.308C129.301 185.237 129.211 185.133 129.096 185C128.867 184.732 128.541 184.346 128.149 183.869C127.367 182.914 126.322 181.592 125.277 180.124C124.232 178.658 123.179 177.034 122.384 175.478C121.599 173.941 121.026 172.395 121.026 171.105C121.026 168.758 121.958 166.506 123.617 164.844C125.276 163.183 127.527 162.248 129.874 162.245ZM129.887 185.038L129.459 185.417C129.567 185.54 129.723 185.61 129.887 185.61C130.051 185.61 130.207 185.539 130.315 185.416L129.887 185.038ZM131.095 168.141C130.511 167.899 129.868 167.835 129.247 167.958C128.626 168.081 128.056 168.386 127.609 168.833C127.162 169.281 126.857 169.851 126.734 170.471C126.611 171.092 126.674 171.735 126.917 172.319C127.159 172.904 127.57 173.403 128.096 173.754C128.623 174.105 129.242 174.292 129.874 174.291C129.899 174.291 129.924 174.292 129.949 174.295C130.769 174.275 131.551 173.94 132.132 173.358C132.73 172.759 133.066 171.947 133.066 171.1C133.067 170.467 132.88 169.847 132.529 169.321C132.179 168.794 131.679 168.384 131.095 168.141ZM129.789 175.433C128.961 175.418 128.153 175.166 127.462 174.705C126.747 174.229 126.19 173.551 125.861 172.758C125.531 171.964 125.445 171.091 125.612 170.249C125.779 169.406 126.193 168.632 126.8 168.025C127.408 167.417 128.182 167.004 129.024 166.837C129.867 166.669 130.74 166.756 131.533 167.085C132.327 167.414 133.005 167.972 133.481 168.687C133.957 169.401 134.211 170.241 134.21 171.1C134.21 171.101 134.21 171.1 134.21 171.1C134.209 172.25 133.753 173.353 132.941 174.166C132.128 174.98 131.026 175.438 129.876 175.44C129.847 175.44 129.818 175.438 129.789 175.433Z" fill="#04146C"/>
<path d="M182.431 153.543C180.234 153.546 178.129 154.42 176.577 155.974C175.025 157.528 174.154 159.635 174.154 161.831C174.154 166.42 182.442 175.764 182.442 175.764C182.442 175.764 190.725 166.408 190.725 161.831C190.726 160.742 190.512 159.663 190.095 158.657C189.678 157.651 189.067 156.736 188.297 155.967C187.527 155.197 186.612 154.586 185.605 154.17C184.599 153.754 183.52 153.541 182.431 153.543V153.543ZM182.431 165.588C181.685 165.589 180.956 165.369 180.335 164.955C179.714 164.542 179.23 163.953 178.944 163.264C178.658 162.576 178.583 161.817 178.729 161.086C178.874 160.354 179.233 159.682 179.76 159.155C180.288 158.627 180.96 158.268 181.691 158.123C182.423 157.978 183.181 158.053 183.87 158.339C184.559 158.625 185.147 159.109 185.561 159.73C185.974 160.35 186.195 161.08 186.194 161.825C186.194 162.824 185.797 163.782 185.092 164.488C184.386 165.195 183.429 165.592 182.431 165.594V165.588Z" fill="#04146C"/>
<path fill-rule="evenodd" clip-rule="evenodd" d="M182.43 152.971C183.594 152.969 184.748 153.197 185.824 153.642C186.9 154.087 187.878 154.739 188.701 155.562C189.525 156.385 190.178 157.363 190.623 158.438C191.069 159.514 191.298 160.667 191.297 161.831C191.297 161.832 191.297 161.831 191.297 161.831C191.297 163.118 190.725 164.663 189.94 166.199C189.146 167.755 188.093 169.378 187.049 170.845C186.005 172.314 184.961 173.637 184.179 174.593C183.788 175.071 183.461 175.457 183.233 175.724C183.118 175.858 183.028 175.962 182.966 176.033L182.896 176.114L182.877 176.135L182.871 176.142C182.871 176.142 182.87 176.143 182.442 175.764L182.87 175.384L182.865 175.378L182.848 175.359L182.78 175.282C182.72 175.213 182.632 175.112 182.52 174.981C182.495 174.952 182.469 174.922 182.442 174.89C182.66 174.634 182.951 174.287 183.294 173.868C184.065 172.926 185.092 171.624 186.118 170.182C187.145 168.738 188.163 167.165 188.922 165.679C189.69 164.174 190.153 162.833 190.153 161.831C190.154 160.817 189.955 159.813 189.567 158.876C189.179 157.939 188.61 157.088 187.893 156.371C187.176 155.654 186.324 155.086 185.387 154.699C184.45 154.312 183.445 154.113 182.432 154.114C180.387 154.117 178.427 154.932 176.982 156.378C175.537 157.825 174.726 159.786 174.726 161.831C174.726 162.836 175.189 164.179 175.958 165.684C176.717 167.17 177.736 168.743 178.764 170.187C179.79 171.628 180.818 172.928 181.589 173.87C181.932 174.287 182.224 174.634 182.442 174.89C182.415 174.921 182.389 174.952 182.364 174.981C182.252 175.112 182.164 175.214 182.104 175.282L182.036 175.359L182.019 175.379L182.014 175.384L182.442 175.764C182.014 176.143 182.014 176.143 182.014 176.143L182.008 176.136L181.989 176.115L181.918 176.034C181.857 175.963 181.766 175.859 181.652 175.725C181.423 175.458 181.096 175.072 180.705 174.595C179.923 173.64 178.878 172.318 177.832 170.85C176.788 169.384 175.734 167.76 174.94 166.204C174.154 164.667 173.582 163.121 173.582 161.831C173.582 159.483 174.514 157.232 176.173 155.57C177.832 153.909 180.082 152.974 182.43 152.971ZM182.442 175.764L182.014 176.143C182.123 176.265 182.279 176.336 182.442 176.336C182.606 176.335 182.762 176.265 182.871 176.142L182.442 175.764ZM183.651 158.867C183.066 158.625 182.423 158.561 181.803 158.684C181.182 158.807 180.612 159.112 180.165 159.559C179.717 160.007 179.413 160.577 179.289 161.197C179.166 161.818 179.23 162.461 179.473 163.045C179.715 163.63 180.126 164.129 180.652 164.48C181.178 164.831 181.797 165.017 182.43 165.016C182.455 165.016 182.48 165.018 182.504 165.021C183.324 165.001 184.106 164.666 184.687 164.084C185.286 163.485 185.622 162.672 185.622 161.825C185.623 161.193 185.436 160.573 185.085 160.047C184.734 159.52 184.235 159.11 183.651 158.867ZM182.345 166.159C181.516 166.144 180.708 165.892 180.018 165.431C179.303 164.955 178.746 164.277 178.416 163.484C178.087 162.69 178.001 161.817 178.168 160.974C178.335 160.132 178.749 159.358 179.356 158.751C179.963 158.143 180.737 157.73 181.58 157.562C182.422 157.395 183.296 157.482 184.089 157.811C184.882 158.14 185.56 158.698 186.037 159.412C186.513 160.127 186.767 160.967 186.765 161.826C186.765 161.827 186.765 161.826 186.765 161.826C186.765 162.976 186.309 164.079 185.496 164.892C184.684 165.706 183.582 166.164 182.432 166.166C182.402 166.166 182.373 166.164 182.345 166.159Z" fill="#04146C"/>
<path d="M161.821 119.537C159.625 119.54 157.519 120.414 155.968 121.968C154.416 123.522 153.544 125.629 153.544 127.825C153.544 132.414 161.832 141.758 161.832 141.758C161.832 141.758 170.115 132.402 170.115 127.825C170.116 126.736 169.902 125.657 169.485 124.651C169.069 123.645 168.458 122.731 167.687 121.961C166.917 121.191 166.002 120.58 164.995 120.164C163.989 119.749 162.91 119.535 161.821 119.537V119.537ZM161.821 131.582C161.075 131.583 160.346 131.363 159.725 130.95C159.104 130.536 158.621 129.947 158.335 129.259C158.049 128.57 157.974 127.811 158.119 127.08C158.264 126.348 158.623 125.676 159.15 125.149C159.678 124.622 160.35 124.263 161.081 124.117C161.813 123.972 162.571 124.047 163.26 124.333C163.949 124.619 164.537 125.103 164.951 125.724C165.365 126.344 165.585 127.074 165.584 127.819C165.584 128.818 165.187 129.776 164.482 130.482C163.776 131.189 162.819 131.586 161.821 131.588V131.582Z" fill="#04146C"/>
<path fill-rule="evenodd" clip-rule="evenodd" d="M161.82 118.965C162.984 118.963 164.138 119.191 165.214 119.636C166.29 120.081 167.268 120.733 168.091 121.556C168.915 122.379 169.568 123.357 170.013 124.432C170.459 125.508 170.688 126.661 170.687 127.826C170.687 127.826 170.687 127.825 170.687 127.826C170.687 129.112 170.115 130.657 169.33 132.193C168.536 133.749 167.483 135.372 166.44 136.839C165.395 138.308 164.351 139.632 163.569 140.587C163.178 141.065 162.852 141.451 162.623 141.719C162.508 141.852 162.418 141.956 162.357 142.027L162.286 142.108L162.267 142.129L162.261 142.136C162.261 142.136 162.261 142.137 161.832 141.758L162.26 141.378L162.255 141.372L162.238 141.353L162.17 141.276C162.11 141.207 162.023 141.106 161.91 140.975C161.885 140.946 161.859 140.916 161.832 140.884C162.05 140.628 162.342 140.281 162.684 139.862C163.455 138.92 164.482 137.618 165.508 136.177C166.535 134.733 167.553 133.159 168.312 131.673C169.08 130.168 169.543 128.827 169.543 127.825C169.544 126.811 169.345 125.807 168.957 124.87C168.569 123.933 168 123.082 167.283 122.365C166.566 121.648 165.714 121.08 164.777 120.693C163.84 120.306 162.836 120.107 161.822 120.108C159.777 120.111 157.817 120.926 156.372 122.372C154.927 123.819 154.116 125.78 154.116 127.825C154.116 128.83 154.579 130.173 155.348 131.678C156.108 133.164 157.126 134.737 158.154 136.181C159.18 137.622 160.208 138.923 160.979 139.864C161.322 140.282 161.614 140.628 161.832 140.884C161.805 140.916 161.779 140.946 161.754 140.975C161.642 141.106 161.554 141.208 161.494 141.276L161.427 141.353L161.41 141.373L161.405 141.379L161.832 141.758C161.405 142.137 161.405 142.137 161.404 142.137L161.398 142.13L161.379 142.109L161.309 142.028C161.247 141.957 161.157 141.853 161.042 141.719C160.813 141.452 160.487 141.066 160.095 140.589C159.313 139.634 158.268 138.312 157.222 136.844C156.178 135.378 155.125 133.754 154.33 132.198C153.545 130.661 152.972 129.115 152.972 127.825C152.972 125.477 153.904 123.226 155.563 121.564C157.222 119.903 159.472 118.968 161.82 118.965ZM161.832 141.758L161.404 142.137C161.513 142.259 161.669 142.33 161.833 142.33C161.996 142.33 162.153 142.259 162.261 142.136L161.832 141.758ZM163.041 124.861C162.456 124.619 161.813 124.555 161.193 124.678C160.572 124.801 160.002 125.106 159.555 125.553C159.107 126.001 158.803 126.571 158.68 127.191C158.556 127.812 158.62 128.455 158.863 129.039C159.105 129.624 159.516 130.123 160.042 130.474C160.569 130.825 161.187 131.011 161.82 131.01C161.845 131.01 161.87 131.012 161.895 131.015C162.715 130.995 163.496 130.66 164.077 130.078C164.676 129.479 165.012 128.666 165.012 127.819C165.013 127.187 164.826 126.567 164.475 126.041C164.124 125.514 163.625 125.104 163.041 124.861ZM161.735 132.153C160.906 132.138 160.099 131.886 159.408 131.425C158.693 130.949 158.136 130.271 157.807 129.478C157.477 128.684 157.391 127.811 157.558 126.969C157.725 126.126 158.139 125.352 158.746 124.745C159.354 124.137 160.128 123.724 160.97 123.556C161.813 123.389 162.686 123.476 163.479 123.805C164.273 124.134 164.95 124.692 165.427 125.406C165.903 126.121 166.157 126.961 166.156 127.82C166.156 127.821 166.156 127.82 166.156 127.82C166.155 128.97 165.699 130.073 164.887 130.886C164.074 131.7 162.972 132.158 161.822 132.16C161.793 132.16 161.764 132.158 161.735 132.153Z" fill="#04146C"/>
<path d="M35.5631 126.29H65.5477C67.8921 126.29 70.1404 127.131 71.7981 128.628C73.4558 130.125 74.3871 132.156 74.3871 134.273V146.567C74.3871 148.685 73.4558 150.715 71.7981 152.212C70.1404 153.709 67.8921 154.55 65.5477 154.55L65.316 164.003C65.2921 164.977 64.0554 165.377 63.4657 164.602L55.8182 154.55H35.5421C33.1978 154.55 30.9495 153.709 29.2918 152.212C27.6341 150.715 26.7028 148.685 26.7028 146.567V134.273C26.7028 133.223 26.9321 132.183 27.3776 131.213C27.8232 130.244 28.4761 129.363 29.2992 128.622C30.1222 127.88 31.0991 127.293 32.174 126.892C33.2488 126.492 34.4005 126.288 35.5631 126.29Z" fill="white"/>
<path fill-rule="evenodd" clip-rule="evenodd" d="M35.5637 125.719C34.3338 125.716 33.1143 125.932 31.9745 126.357C30.8346 126.781 29.7949 127.405 28.9165 128.197C28.0379 128.988 27.3373 129.932 26.8581 130.975C26.3787 132.018 26.131 133.139 26.131 134.273V146.567C26.131 148.856 27.1383 151.037 28.9086 152.636C30.6769 154.233 33.0639 155.121 35.5421 155.121H55.5347L63.0106 164.948C63.9276 166.153 65.8505 165.531 65.8876 164.017L66.106 155.106C68.3821 154.984 70.5462 154.113 72.1813 152.636C73.9516 151.037 74.9588 148.856 74.9588 146.567V134.273C74.9588 131.984 73.9516 129.803 72.1813 128.204C70.4129 126.607 68.026 125.719 65.5477 125.719H35.5637ZM32.3734 127.428C33.3832 127.053 34.4668 126.86 35.5619 126.862L35.5631 126.862H65.5477C67.7582 126.862 69.8678 127.656 71.4149 129.053C72.96 130.448 73.8153 132.327 73.8153 134.273V146.567C73.8153 148.513 72.96 150.392 71.4149 151.787C69.8678 153.184 67.7582 153.978 65.5477 153.978C65.2374 153.978 64.9837 154.225 64.9761 154.536L64.7444 163.989C64.7338 164.422 64.1833 164.601 63.9207 164.256L56.2732 154.204C56.1651 154.061 55.9968 153.978 55.8182 153.978H35.5421C33.3317 153.978 31.222 153.184 29.675 151.787C28.1299 150.392 27.2746 148.513 27.2746 146.567V134.273C27.2746 133.307 27.4855 132.348 27.8972 131.452C28.309 130.556 28.9144 129.738 29.6819 129.046C30.4495 128.355 31.3637 127.804 32.3734 127.428Z" fill="#04146C"/>
<path d="M41.8609 112.323H12.7269C10.4518 112.339 8.27429 113.249 6.66435 114.857C5.0544 116.464 4.14116 118.641 4.12171 120.916V134.189C4.14116 136.464 5.0544 138.64 6.66435 140.248C8.27429 141.855 10.4518 142.766 12.7269 142.782L12.9433 152.902C12.9647 153.903 14.257 154.289 14.8233 153.463L22.1493 142.782H41.8609C44.1398 142.782 46.3254 141.876 47.9369 140.265C49.5484 138.653 50.4537 136.468 50.4537 134.189V120.916C50.4537 118.637 49.5484 116.451 47.9369 114.84C46.3254 113.228 44.1398 112.323 41.8609 112.323Z" fill="#04146C"/>
<path fill-rule="evenodd" clip-rule="evenodd" d="M41.8609 112.895C43.9882 112.895 46.0284 113.74 47.5326 115.244C49.0368 116.748 49.8819 118.788 49.8819 120.916V134.189C49.8819 136.316 49.0368 138.356 47.5326 139.861C46.0284 141.365 43.9882 142.21 41.8609 142.21H22.1493C21.9608 142.21 21.7844 142.303 21.6778 142.458L14.3518 153.14C14.0997 153.507 13.5244 153.335 13.5149 152.89L13.2986 142.769C13.292 142.46 13.0404 142.212 12.731 142.21C10.606 142.195 8.5721 141.345 7.06836 139.843C5.56514 138.342 4.71221 136.31 4.69348 134.186V120.918C4.71221 118.794 5.56514 116.762 7.06836 115.261C8.57162 113.76 10.6047 112.91 12.729 112.895H41.8609ZM48.3412 114.435C46.6225 112.717 44.2915 111.751 41.8609 111.751H12.7229C10.2977 111.768 7.97648 112.739 6.26033 114.452C4.54417 116.166 3.57067 118.486 3.54995 120.911L3.54991 120.916L3.54993 134.189L3.54995 134.194C3.57067 136.619 4.54417 138.939 6.26033 140.652C7.84483 142.235 9.94509 143.183 12.1668 143.333L12.3716 152.914C12.4049 154.471 14.4142 155.07 15.2948 153.786L22.4505 143.353H41.8609C44.2915 143.353 46.6225 142.388 48.3412 140.669C50.0599 138.95 51.0255 136.619 51.0255 134.189V120.916C51.0255 118.485 50.0599 116.154 48.3412 114.435Z" fill="#04146C"/>
<path d="M33.1573 127.541C33.1573 126.907 33.3457 126.286 33.6986 125.758C34.0516 125.231 34.5531 124.82 35.1398 124.577C35.7265 124.335 36.3719 124.272 36.9943 124.397C37.6167 124.522 38.1881 124.829 38.6361 125.278C39.0841 125.728 39.3885 126.301 39.5109 126.923C39.6332 127.546 39.5679 128.191 39.3233 128.777C39.0787 129.363 38.6657 129.863 38.1368 130.214C37.6078 130.565 36.9865 130.751 36.3518 130.748C35.5034 130.745 34.6909 130.406 34.0922 129.805C33.4935 129.204 33.1573 128.39 33.1573 127.541Z" fill="white"/>
<path d="M26.4327 130.748C24.6616 130.748 23.2258 129.312 23.2258 127.541C23.2258 125.77 24.6616 124.335 26.4327 124.335C28.2038 124.335 29.6395 125.77 29.6395 127.541C29.6395 129.312 28.2038 130.748 26.4327 130.748Z" fill="white"/>
<path d="M16.5161 130.748C14.745 130.748 13.3092 129.312 13.3092 127.541C13.3092 125.77 14.745 124.335 16.5161 124.335C18.2871 124.335 19.7229 125.77 19.7229 127.541C19.7229 129.312 18.2871 130.748 16.5161 130.748Z" fill="white"/>
<path d="M318.896 234.951H251.439V274.376H318.896V234.951Z" fill="white"/>
<path fill-rule="evenodd" clip-rule="evenodd" d="M251.182 234.951C251.182 234.809 251.297 234.693 251.439 234.693H318.896C319.038 234.693 319.153 234.809 319.153 234.951V274.376C319.153 274.518 319.038 274.634 318.896 274.634H251.439C251.297 274.634 251.182 274.518 251.182 274.376V234.951ZM251.697 235.209V274.118H318.638V235.209H251.697Z" fill="#04146C"/>
<path d="M251.439 274.376L284.647 243.716L318.909 274.376H251.439Z" fill="white"/>
<path fill-rule="evenodd" clip-rule="evenodd" d="M284.472 243.527C284.57 243.437 284.72 243.436 284.819 243.524L319.081 274.184C319.16 274.255 319.188 274.368 319.149 274.468C319.111 274.567 319.016 274.633 318.909 274.633H251.439C251.333 274.633 251.238 274.568 251.199 274.47C251.161 274.371 251.187 274.258 251.264 274.186L284.472 243.527ZM284.65 244.064L252.098 274.118H318.235L284.65 244.064Z" fill="#04146C"/>
<path d="M251.439 234.951L285.181 254.67L318.909 234.951H251.439Z" fill="white"/>
<path fill-rule="evenodd" clip-rule="evenodd" d="M251.191 234.884C251.221 234.771 251.323 234.693 251.439 234.693H318.909C319.025 234.693 319.127 234.771 319.158 234.884C319.188 234.996 319.139 235.115 319.039 235.173L285.311 254.893C285.23 254.94 285.131 254.94 285.051 254.893L251.309 235.173C251.209 235.115 251.16 234.996 251.191 234.884ZM252.391 235.209L285.181 254.372L317.958 235.209H252.391Z" fill="#04146C"/>
<path d="M104.479 29.8839H71.7348C66.8334 29.8839 62.8601 33.8573 62.8601 38.7586V71.5031C62.8601 76.4045 66.8334 80.3778 71.7348 80.3778H104.479C109.381 80.3778 113.354 76.4045 113.354 71.5031V38.7587C113.354 33.8573 109.381 29.8839 104.479 29.8839Z" fill="#04146C"/>
<path d="M106.681 44.8771C106.681 39.8209 103.495 36.5475 98.4877 36.4988C91.5512 36.4274 84.618 36.4274 77.6881 36.4988C72.817 36.5573 69.6118 39.8014 69.5338 44.692C69.4851 48.1505 69.5338 51.6188 69.5338 55.0772C69.5338 58.5357 69.5338 61.8968 69.5338 65.2384C69.5338 70.4115 72.7293 73.7141 77.8439 73.7628C84.7025 73.8407 91.561 73.8407 98.4195 73.7628C103.437 73.7044 106.642 70.4115 106.671 65.4138C106.71 58.5682 106.713 51.7227 106.681 44.8771ZM103.359 65.4722C103.359 68.6676 101.605 70.4407 98.4098 70.4602C91.5513 70.4992 84.6927 70.4992 77.8342 70.4602C74.6193 70.4602 72.8852 68.6774 72.8657 65.4917C72.8657 58.5747 72.8657 51.6577 72.8657 44.7408C72.8657 41.5745 74.6485 39.7528 77.8147 39.7235C84.6732 39.6846 91.5318 39.6846 98.3903 39.7235C101.566 39.7235 103.33 41.5648 103.359 44.7213C103.359 48.1798 103.359 51.6383 103.359 55.0967C103.359 58.5552 103.398 62.0137 103.359 65.4722V65.4722Z" fill="white"/>
<path d="M88.1297 45.3858C86.2034 45.3667 84.3147 45.919 82.7023 46.973C81.0899 48.0271 79.8261 49.5355 79.0708 51.3076C78.3155 53.0797 78.1025 55.0359 78.4587 56.9291C78.8149 58.8222 79.7244 60.5673 81.0722 61.9436C82.42 63.32 84.1455 64.2659 86.0308 64.6618C87.916 65.0577 89.8763 64.8858 91.6639 64.1678C93.4515 63.4498 94.9861 62.218 96.0737 60.6281C97.1614 59.0381 97.7532 57.1614 97.7745 55.2352C97.7886 53.955 97.5503 52.6845 97.0732 51.4965C96.596 50.3085 95.8893 49.2262 94.9936 48.3114C94.0979 47.3967 93.0306 46.6675 91.8528 46.1655C90.6751 45.6635 89.4099 45.3985 88.1297 45.3858V45.3858ZM88.0031 61.5579C86.3257 61.5109 84.7304 60.8216 83.5465 59.6323C82.3627 58.443 81.6807 56.8446 81.6414 55.167C81.6414 53.4513 82.3229 51.806 83.5361 50.5928C84.7492 49.3797 86.3946 48.6982 88.1102 48.6982C89.8259 48.6982 91.4713 49.3797 92.6844 50.5928C93.8975 51.806 94.5791 53.4513 94.5791 55.167C94.5359 56.8736 93.8289 58.4962 92.6081 59.6896C91.3874 60.8831 89.7492 61.5533 88.042 61.5579H88.0031Z" fill="white"/>
<path d="M100.706 45.1603C100.708 45.4508 100.646 45.7382 100.527 46.0029C100.407 46.2676 100.231 46.5033 100.012 46.6939C99.793 46.8845 99.5351 47.0254 99.2563 47.1071C98.9776 47.1888 98.6844 47.2093 98.397 47.1672C98.0875 47.183 97.7784 47.1283 97.4932 47.0072C97.2079 46.8861 96.9539 46.7017 96.7503 46.4681C96.5467 46.2345 96.3989 45.9577 96.3179 45.6585C96.2369 45.3594 96.2249 45.0458 96.2829 44.7414C96.2937 44.4498 96.3636 44.1635 96.4885 43.8997C96.6133 43.636 96.7904 43.4005 97.0091 43.2073C97.2277 43.0142 97.4834 42.8675 97.7605 42.7761C98.0376 42.6848 98.3304 42.6507 98.621 42.676C98.9266 42.6867 99.2266 42.7615 99.5014 42.8955C99.7763 43.0296 100.02 43.2199 100.216 43.4541C100.413 43.6883 100.558 43.9613 100.642 44.2552C100.727 44.5491 100.748 44.8575 100.706 45.1603Z" fill="white"/>
<path d="M30.9142 231.86H145.769V254.985H30.9142V231.86Z" fill="#3FFFF3"/>
<path d="M87.9583 242.286C82.3073 241.725 76.6168 242.853 71.6066 245.526C66.5963 248.199 62.4912 252.298 59.8104 257.304C57.1297 262.31 55.9936 267.999 56.5459 273.651C57.0983 279.303 59.3142 284.664 62.9134 289.057C66.5127 293.449 71.3336 296.676 76.7666 298.328C82.1997 299.981 88.0007 299.985 93.4362 298.341C98.8717 296.697 103.698 293.477 107.304 289.09C110.909 284.703 113.133 279.346 113.694 273.694C114.437 266.119 112.145 258.558 107.32 252.67C102.495 246.782 95.5323 243.048 87.9583 242.286V242.286Z" fill="white"/>
<path fill-rule="evenodd" clip-rule="evenodd" d="M87.9583 242.286C82.3073 241.725 76.6168 242.853 71.6066 245.526C66.5963 248.199 62.4912 252.298 59.8104 257.304C57.1297 262.31 55.9936 267.999 56.5459 273.651C57.0983 279.303 59.3142 284.664 62.9134 289.057C66.5127 293.449 71.3336 296.676 76.7666 298.328C82.1997 299.981 88.0007 299.985 93.4362 298.341C98.8717 296.697 103.698 293.477 107.304 289.09C110.909 284.703 113.133 279.346 113.694 273.694C114.437 266.119 112.145 258.558 107.32 252.67C102.495 246.782 95.5323 243.048 87.9583 242.286ZM87.818 243.692C82.4452 243.159 77.035 244.231 72.2714 246.772C67.5076 249.314 63.6045 253.211 61.0556 257.971C58.5067 262.731 57.4265 268.14 57.9517 273.514C58.4768 278.888 60.5837 283.985 64.0059 288.161C67.4281 292.338 72.0119 295.406 77.1777 296.977C82.3434 298.548 87.8591 298.552 93.0272 296.989C98.1954 295.426 102.784 292.365 106.212 288.193C109.641 284.023 111.755 278.929 112.289 273.557C112.995 266.353 110.815 259.163 106.227 253.565C101.64 247.966 95.0195 244.416 87.818 243.692Z" fill="#04146C"/>
<path fill-rule="evenodd" clip-rule="evenodd" d="M84.6034 284.413C88.2161 284.724 91.8108 283.616 94.6229 281.32C97.4781 278.989 99.2944 275.622 99.675 271.955L99.7877 270.82C99.8854 267.314 98.6622 263.898 96.3595 261.25C94.0465 258.591 90.8149 256.903 87.3109 256.523C83.8069 256.144 80.2888 257.101 77.46 259.203C74.6313 261.306 72.7004 264.398 72.0535 267.863L72.0508 267.878L72.0478 267.892C71.9571 268.327 71.8898 268.766 71.8462 269.209L71.8459 269.211C71.5549 272.115 72.202 275.037 73.6925 277.547L74.0688 278.181L72.4436 281.76L76.4336 280.909L76.9576 281.334C79.0818 283.053 81.6634 284.112 84.3832 284.379L84.5565 284.396L84.6034 284.413ZM70.0001 283.726L72.478 278.268C70.8334 275.499 70.1194 272.275 70.4406 269.07C70.4891 268.578 70.5641 268.088 70.6651 267.604C71.3773 263.789 73.5031 260.384 76.6175 258.07C79.7318 255.755 83.6052 254.701 87.463 255.119C91.3208 255.537 94.8787 257.395 97.4252 260.323C99.9717 263.251 101.319 267.033 101.198 270.911L101.08 272.098C100.662 276.137 98.6615 279.846 95.5162 282.414C92.371 284.982 88.3369 286.201 84.2958 285.803L84.245 285.785C81.2503 285.491 78.4078 284.325 76.0689 282.431L70.0001 283.726Z" fill="#04146C"/>
<path fill-rule="evenodd" clip-rule="evenodd" d="M93.7379 274.849C93.3197 274.592 91.3518 273.345 90.9249 273.176C90.498 273.007 90.2682 272.895 89.9371 273.293C89.606 273.691 88.6828 274.563 88.4156 274.828C88.1484 275.093 87.8823 275.092 87.4641 274.835C86.2465 274.212 85.149 273.377 84.2225 272.371C83.3672 271.426 82.6612 270.355 82.1289 269.197C81.9202 268.745 82.1949 268.531 82.4044 268.337C82.6139 268.142 82.8798 267.89 83.1182 267.66L83.3013 267.475C83.4181 267.32 83.5232 267.157 83.616 266.986C83.6899 266.879 83.7354 266.755 83.7483 266.626C83.7611 266.496 83.7409 266.365 83.6895 266.246C83.5977 266.021 82.9534 263.827 82.6741 262.938C82.3948 262.048 82.0283 262.164 81.7773 262.139C81.5262 262.114 81.2375 262.085 80.9487 262.056C80.7317 262.039 80.5134 262.066 80.3077 262.137C80.102 262.209 79.9134 262.322 79.754 262.47C79.2225 262.878 78.7823 263.393 78.4619 263.981C78.1415 264.569 77.9479 265.218 77.8937 265.886C77.8513 266.38 77.8788 266.878 77.9751 267.365C78.2044 268.463 78.6235 269.513 79.2139 270.467C79.3999 270.764 81.7193 275.495 85.9184 277.636C90.1176 279.777 90.1737 279.212 90.972 279.215C91.5831 279.16 92.1755 278.975 92.7101 278.675C93.2448 278.374 93.7095 277.963 94.0738 277.469C94.4105 276.86 94.5672 276.168 94.5254 275.473C94.406 275.271 94.0934 275.1 93.7379 274.849Z" fill="#04146C"/>
<path fill-rule="evenodd" clip-rule="evenodd" d="M84.2225 272.371C83.3672 271.426 82.6612 270.355 82.1289 269.197C81.932 268.771 82.1653 268.556 82.3682 268.37C82.3804 268.359 82.3925 268.348 82.4044 268.337C82.6139 268.142 82.8798 267.89 83.1182 267.66L83.3013 267.475C83.4181 267.32 83.5232 267.157 83.616 266.986C83.6899 266.879 83.7354 266.755 83.7483 266.626C83.7611 266.496 83.7409 266.365 83.6895 266.246C83.635 266.112 83.3857 265.285 83.1337 264.448C82.9612 263.876 82.7876 263.299 82.6741 262.938C82.4297 262.159 82.1185 262.15 81.8763 262.144C81.8418 262.143 81.8086 262.142 81.7773 262.139L80.9487 262.056C80.7317 262.039 80.5134 262.066 80.3077 262.137C80.102 262.209 79.9134 262.322 79.754 262.47C79.2225 262.878 78.7823 263.393 78.4619 263.981C78.1415 264.569 77.9479 265.218 77.8937 265.886C77.8513 266.38 77.8788 266.878 77.9751 267.365C78.2044 268.463 78.6235 269.513 79.2139 270.467C79.2289 270.491 79.2579 270.544 79.3007 270.622C79.7873 271.512 82.0589 275.668 85.9184 277.636C89.4045 279.413 90.0352 279.325 90.6056 279.246C90.7223 279.23 90.8365 279.214 90.972 279.215C91.5831 279.16 92.1755 278.975 92.7101 278.675C93.2448 278.374 93.7095 277.963 94.0738 277.469C94.4105 276.86 94.5672 276.168 94.5254 275.473C94.435 275.32 94.2338 275.185 93.9872 275.02C93.908 274.967 93.8242 274.91 93.7379 274.849C93.6679 274.806 93.5545 274.736 93.4121 274.647C92.704 274.205 91.2804 273.317 90.9249 273.176C90.9093 273.17 90.894 273.163 90.8789 273.158C90.4811 272.999 90.2561 272.91 89.9371 273.293C89.6796 273.603 89.0641 274.199 88.6775 274.573C88.5669 274.68 88.475 274.769 88.4156 274.828C88.1484 275.093 87.8823 275.092 87.4641 274.835C86.2465 274.212 85.149 273.377 84.2225 272.371ZM86.7751 276.069C85.4271 275.372 84.2114 274.444 83.1834 273.328L83.1751 273.319C82.2233 272.267 81.4377 271.076 80.8454 269.786C80.5819 269.214 80.5641 268.59 80.8529 268.026C81.0509 267.64 81.385 267.352 81.4365 267.308C81.4398 267.305 81.442 267.303 81.4428 267.302C81.6413 267.118 81.8957 266.876 82.1264 266.654L82.2236 266.556C82.2418 266.53 82.2596 266.503 82.2769 266.477C82.1782 266.172 82.0404 265.715 81.9124 265.291L81.8999 265.249C81.8603 265.118 81.82 264.984 81.7799 264.851C81.6313 264.358 81.4843 263.87 81.3756 263.518L80.8268 263.464C80.8075 263.463 80.7882 263.466 80.77 263.472C80.75 263.479 80.7317 263.49 80.7163 263.504L80.6671 263.55L80.6137 263.591C80.2388 263.879 79.9283 264.242 79.7023 264.657C79.4763 265.072 79.3398 265.529 79.3015 266L79.301 266.007C79.2701 266.367 79.2898 266.729 79.3593 267.083C79.5553 268.018 79.9125 268.911 80.415 269.724C80.4442 269.771 80.4893 269.852 80.5502 269.961C81.1342 271.006 83.1679 274.648 86.56 276.377C88.6522 277.444 89.5649 277.756 89.9956 277.841C90.1657 277.875 90.2362 277.869 90.2899 277.863C90.3308 277.859 90.3505 277.856 90.3821 277.851C90.4104 277.847 90.4483 277.842 90.5196 277.833C90.6187 277.82 90.7455 277.807 90.8948 277.803C91.2893 277.761 91.6712 277.638 92.0173 277.444C92.3505 277.256 92.6434 277.005 92.8798 276.706C92.9743 276.517 93.0416 276.317 93.0804 276.112C93.0424 276.086 93.0024 276.059 92.9612 276.03C92.8756 275.977 92.7648 275.908 92.6343 275.826C92.3599 275.655 91.998 275.429 91.5983 275.185C91.3033 275.005 91.016 274.832 90.7802 274.696C90.7275 274.666 90.6808 274.639 90.6399 274.616C90.2915 274.978 89.8544 275.401 89.5971 275.65C89.5119 275.732 89.4464 275.795 89.4104 275.831C89.0979 276.141 88.6294 276.437 88.0034 276.44C87.4885 276.442 87.0635 276.241 86.7751 276.069Z" fill="#04146C"/>
</svg>
